<svg xmlns="http://www.w3.org/2000/svg" width="512" height="512" viewBox="0 0 512 512" version="1.1"><path d="" stroke="none" fill="#080404" fill-rule="evenodd"/><path d="M 183 9.314 C 178.147 10.852, 170.725 18.556, 169.222 23.616 C 168.429 26.287, 168 35.090, 168 48.697 C 168 69.102, 168.067 69.792, 170.508 74.581 L 173.016 79.500 170.399 85.368 C 168.232 90.228, 167.852 92.332, 168.188 97.618 L 168.595 104 162.163 104 C 158.626 104, 153.880 104.550, 151.616 105.222 C 146.204 106.830, 138.830 114.204, 137.222 119.616 C 136.353 122.544, 136 134.704, 136 161.738 L 136 199.744 122.250 200.259 C 97.071 201.203, 75.109 209.150, 54.843 224.647 C 37.836 237.654, 22.278 258.536, 15.467 277.500 C 14.479 280.250, 12.508 284.075, 11.086 286 L 8.500 289.500 8.500 320 L 8.500 350.500 11.086 354 C 12.508 355.925, 14.479 359.750, 15.467 362.500 C 20.558 376.676, 31.372 393.273, 43.073 404.869 C 65.261 426.858, 91.930 438.604, 122.250 439.741 L 136 440.256 136 462.262 C 136 475.859, 136.436 485.724, 137.141 488.078 C 138.796 493.600, 143.617 498.913, 149.429 501.619 L 154.500 503.980 320 503.980 L 485.500 503.980 490.500 501.623 C 496.458 498.813, 499.174 496.048, 501.916 490 C 503.945 485.524, 503.956 484.539, 503.968 304 L 503.980 122.500 501.619 117.429 C 497.363 108.289, 489.873 104, 478.165 104 L 472.061 104 471.781 60.750 C 471.514 19.703, 471.401 17.370, 469.557 14.943 C 468.488 13.537, 466.463 11.512, 465.057 10.443 C 462.627 8.597, 460.582 8.500, 424 8.500 C 385.776 8.500, 385.478 8.516, 382.373 10.730 C 376.013 15.267, 376 15.375, 376 61.901 L 376 104 367.703 104 L 359.405 104 359.819 97.498 C 360.172 91.956, 359.835 90.183, 357.535 85.482 L 354.837 79.968 357.419 74.788 C 359.955 69.698, 360 69.230, 359.990 48.054 C 359.981 27.510, 359.870 26.262, 357.619 21.429 C 354.913 15.617, 349.600 10.796, 344.078 9.141 C 338.800 7.560, 188.023 7.721, 183 9.314 M 189.020 25.274 C 184.438 27.612, 183.941 30.095, 184.231 49.225 C 184.488 66.157, 184.602 67.051, 186.778 69.225 L 189.056 71.500 264 71.500 L 338.944 71.500 341.222 69.222 C 343.432 67.012, 343.500 66.381, 343.500 48 C 343.500 29.620, 343.432 28.988, 341.223 26.778 L 338.945 24.500 265.223 24.254 C 207.348 24.062, 190.967 24.281, 189.020 25.274 M 392 64 L 392 104 406.230 104 L 420.460 104 411.224 94.725 L 401.987 85.450 407.764 79.733 L 413.541 74.016 428.508 89.008 L 443.475 104 449.737 104 L 456 104 456 64 L 456 24 424 24 L 392 24 392 64 M 407.740 39.758 L 402.020 45.538 422.280 65.780 L 442.540 86.022 448.260 80.242 L 453.980 74.462 433.720 54.220 L 413.460 33.978 407.740 39.758 M 224 48 L 224 56 276 56 L 328 56 328 48 L 328 40 276 40 L 224 40 224 48 M 189 89.284 C 185.222 91.210, 183.565 95.320, 185.195 98.721 C 187.795 104.143, 185.683 104.011, 265.223 103.746 L 338.945 103.500 341.139 101.306 C 344.014 98.430, 344.014 93.570, 341.139 90.694 L 338.945 88.500 265.223 88.254 C 207.060 88.061, 190.972 88.278, 189 89.284 M 157.020 121.280 C 152.499 123.576, 152.031 126.052, 152.015 147.750 L 152 168 320.055 168 L 488.110 168 487.805 146.526 C 487.509 125.712, 487.430 124.981, 485.222 122.776 L 482.945 120.500 321.222 120.260 C 192.763 120.069, 158.990 120.279, 157.020 121.280 M 184 144 L 184 152 192 152 L 200 152 200 144 L 200 136 192 136 L 184 136 184 144 M 216 144 L 216 152 224 152 L 232 152 232 144 L 232 136 224 136 L 216 136 216 144 M 248 144 L 248 152 256 152 L 264 152 264 144 L 264 136 256 136 L 248 136 248 144 M 312 144 L 312 152 336 152 L 360 152 360 144 L 360 136 336 136 L 312 136 312 144 M 376 144 L 376 152 408 152 L 440 152 440 144 L 440 136 408 136 L 376 136 376 144 M 152 192.961 L 152 201.923 156.250 202.996 C 181.126 209.275, 200.894 221.517, 219.406 242.107 L 224.103 247.331 227.207 243.415 C 244.321 221.828, 273.420 205.366, 302.418 200.867 C 314.058 199.061, 337.715 200.281, 349.074 203.274 C 393.011 214.847, 425.301 247.148, 436.697 290.926 C 439.787 302.797, 440.895 324.452, 439.056 337.029 C 435.820 359.161, 425.683 381.718, 411.974 397.292 L 407.811 402.022 411.911 419.761 C 414.166 429.517, 416.005 439.975, 415.996 443 C 415.962 455.143, 407.809 464.901, 393.799 469.567 C 379.745 474.247, 368.094 472.063, 359.632 463.161 L 356.764 460.144 348.295 465.780 C 340.683 470.846, 339.193 471.457, 333.580 471.814 C 323.310 472.468, 316.267 467.681, 312.938 457.784 C 311.308 452.938, 310.772 452.353, 306.457 450.722 C 294.243 446.105, 283.921 447.525, 266.594 456.207 L 254.687 462.172 255.351 452.336 C 255.716 446.926, 256.298 437.992, 256.645 432.483 L 257.275 422.466 251.388 418.591 C 248.149 416.460, 240.636 409.873, 234.691 403.954 L 223.881 393.192 215.191 402.252 C 198.051 420.120, 179.266 431.191, 156.197 437.018 L 151.894 438.106 152.197 460.527 C 152.492 482.329, 152.563 483.011, 154.778 485.224 L 157.056 487.500 320 487.500 L 482.944 487.500 485.222 485.222 L 487.500 482.945 487.760 333.472 L 488.019 184 320.010 184 L 152 184 152 192.961 M 117.500 217.081 C 83.311 220.535, 51.562 242.219, 36.078 272.691 C 34.385 276.022, 33 279.029, 33 279.374 C 33 279.718, 35.505 280, 38.566 280 C 41.627 280, 45.093 280.515, 46.268 281.143 C 47.531 281.819, 48.533 281.900, 48.720 281.341 C 50.033 277.401, 57.684 266.435, 63.405 260.293 C 80.770 241.649, 102.782 231.992, 127.878 232.007 C 152.507 232.022, 173.622 240.832, 190.658 258.202 C 219.647 287.760, 224.498 332.810, 202.408 367.324 C 175.064 410.047, 118.026 420.965, 76.405 391.443 C 68.478 385.821, 57.479 373.957, 52.767 365.949 C 50.714 362.459, 48.893 359.179, 48.720 358.659 C 48.533 358.100, 47.531 358.181, 46.268 358.857 C 45.093 359.485, 41.627 360, 38.566 360 C 35.505 360, 33 360.269, 33 360.597 C 33 362.905, 42.283 378.226, 47.841 385.092 C 69.321 411.628, 104.419 426.418, 137.750 422.979 C 181.059 418.511, 216.546 388.574, 227.953 346.884 C 242.876 292.342, 209.902 235.103, 154.884 220.047 C 148.329 218.253, 131.014 215.835, 127 216.154 C 126.175 216.219, 121.900 216.636, 117.500 217.081 M 309.278 217.068 C 288.630 219.066, 269.074 227.550, 252.283 241.795 C 244.976 247.994, 233.629 261.676, 234.378 263.385 C 234.646 263.998, 236.372 267.899, 238.212 272.053 L 241.558 279.607 245.029 273.647 C 249.462 266.035, 260.565 254.117, 268.405 248.557 C 293.707 230.610, 326.265 226.827, 354.205 238.586 C 374.904 247.298, 393.624 266.362, 401.921 287.176 C 410.220 307.998, 410.083 333.328, 401.564 353.202 L 398.262 360.904 400.529 370.516 C 401.775 375.803, 403.008 380.342, 403.269 380.602 C 403.530 380.863, 405.177 378.841, 406.930 376.109 C 415.799 362.289, 421.248 346.609, 422.951 330.008 C 428.055 280.271, 395.621 233.384, 346.884 220.047 C 340.329 218.253, 323.014 215.835, 319 216.154 C 318.175 216.219, 313.800 216.630, 309.278 217.068 M 118.539 249.066 C 94.643 252.734, 75.474 266.249, 64.472 287.185 C 54.348 306.452, 54.087 332.362, 63.823 351.650 C 76.229 376.226, 100.159 391.105, 127.500 391.243 C 139.752 391.305, 148.707 389.283, 159.500 384.018 C 174.351 376.774, 185.693 365.244, 192.650 350.319 C 197.409 340.109, 199.302 331.258, 199.243 319.500 C 199.105 292.159, 184.226 268.229, 159.650 255.823 C 148.295 250.091, 130.699 247.199, 118.539 249.066 M 310.539 249.066 C 281.163 253.575, 258.282 273.761, 250.876 301.700 C 248.307 311.395, 248.097 326.553, 250.397 336.319 C 251.995 343.104, 257.373 355.698, 260.290 359.487 C 261.753 361.387, 261.848 361.299, 262.441 357.487 C 264.274 345.722, 268.325 336.857, 275.357 329.229 C 281.732 322.313, 285.973 320.524, 296 320.524 C 305.677 320.524, 310.018 322.241, 315.946 328.412 C 317.842 330.386, 319.914 332, 320.552 332 C 321.189 332, 326.366 329.964, 332.057 327.475 C 346.266 321.261, 352.678 319.746, 362.993 320.165 C 373.092 320.575, 379.157 323.105, 385.679 329.626 C 389.704 333.652, 389.945 333.752, 390.612 331.679 C 390.998 330.480, 391.287 325, 391.254 319.500 C 391.090 292.137, 376.218 268.225, 351.650 255.823 C 340.295 250.091, 322.699 247.199, 310.539 249.066 M 24 320 L 24 344 32 344 L 40 344 40 320 L 40 296 32 296 L 24 296 24 320 M 355.263 337.107 C 352.383 337.587, 338.520 342.895, 324.456 348.903 C 299.649 359.500, 298.859 359.762, 298.038 357.663 C 297.573 356.474, 296.249 353.325, 295.096 350.667 C 293.943 348.009, 293 345.465, 293 345.013 C 293 344.561, 295.458 343.173, 298.461 341.928 C 303.317 339.915, 303.733 339.520, 302.211 338.364 C 301.270 337.649, 298.397 337.049, 295.827 337.032 C 291.868 337.005, 290.658 337.496, 287.910 340.244 C 286.126 342.028, 283.536 345.956, 282.155 348.973 C 279.833 354.045, 279.415 357.418, 276.622 393.696 C 274.960 415.277, 273.833 433.166, 274.118 433.451 C 274.402 433.736, 277.980 433.259, 282.068 432.391 C 290.241 430.656, 299.425 431.020, 307.304 433.391 L 312 434.804 312 397.402 L 312 360 320 360 L 328 360 328 405.566 C 328 435.063, 328.365 451.814, 329.035 453.066 C 330.717 456.208, 334.018 455.335, 342.872 449.407 C 351.183 443.843, 351.223 443.795, 350.681 440.157 C 349.290 430.821, 343.690 376.977, 344.071 376.597 C 344.307 376.362, 348.083 376.019, 352.462 375.835 L 360.425 375.500 364.192 409.500 C 366.264 428.200, 368.203 444.516, 368.501 445.758 C 369.300 449.090, 374.066 453.916, 377.510 454.880 C 380.973 455.849, 389.711 453.934, 394.468 451.164 C 396.319 450.086, 397.968 447.985, 398.700 445.772 C 399.796 442.462, 398.991 438.193, 389.469 396.823 C 383.731 371.895, 378.321 349.600, 377.446 347.278 C 375.569 342.294, 371.383 338.478, 366.219 337.044 C 362.092 335.898, 362.531 335.895, 355.263 337.107 M 238.190 367.950 C 236.369 372.102, 234.656 376.002, 234.384 376.615 C 233.249 379.174, 256.756 404.577, 258.576 402.757 C 258.853 402.480, 259.351 398.399, 259.684 393.688 L 260.288 385.121 254.394 378.683 C 251.152 375.142, 246.925 369.579, 245 366.322 L 241.500 360.399 238.190 367.950" stroke="none" fill="#040404" fill-rule="evenodd"/></svg>